<svg id="bg" xmlns="http://www.w3.org/2000/svg" xmlns:xlink="http://www.w3.org/1999/xlink" width="738.857" height="539" viewBox="0 0 738.857 539">
  <defs>
    <style>
      .cls-1 {
        fill: #2a2e43;
      }

      .cls-2 {
        clip-path: url(#clip-path);
      }

      .cls-3 {
        fill: #665eff;
      }

      .cls-4 {
        fill: #5773ff;
      }

      .cls-5 {
        fill: #3497fd;
      }

      .cls-6 {
        fill: #3acce1;
      }
    </style>
    <clipPath id="clip-path">
      <path id="back" class="cls-1" d="M12,0H726.857a12,12,0,0,1,12,12V539a0,0,0,0,1,0,0H0a0,0,0,0,1,0,0V12A12,12,0,0,1,12,0Z"/>
    </clipPath>
  </defs>
  <path id="back-2" data-name="back" class="cls-1" d="M12,0H726.857c6.627,0,12,7.8,12,17.421V539H0V17.421C0,7.8,5.373,0,12,0Z"/>
  <g id="Mask" class="cls-2">
    <g id="gradient">
      <rect id="Rectangle" class="cls-3" width="185.207" height="9.22"/>
      <rect id="Rectangle-2" data-name="Rectangle" class="cls-4" width="185.207" height="9.22" transform="translate(185.207)"/>
      <rect id="Rectangle-3" data-name="Rectangle" class="cls-5" width="185.207" height="9.22" transform="translate(368.443)"/>
      <rect id="Rectangle-4" data-name="Rectangle" class="cls-6" width="185.207" height="9.22" transform="translate(553.65)"/>
    </g>
  </g>
</svg>
