<svg xmlns="http://www.w3.org/2000/svg" width="28.122" height="28.066" viewBox="0 0 28.122 28.066">
  <defs>
    <style>
      .cls-1 {
        fill: #454f63;
      }
    </style>
  </defs>
  <g id="用户_2_" data-name="用户 (2)" transform="translate(0 -2.046)">
    <path id="路径_138" data-name="路径 138" class="cls-1" d="M261.223,26.37a.943.943,0,0,1-.943-.943,12.138,12.138,0,0,0-4.516-9.468.942.942,0,0,1,.591-1.674.922.922,0,0,1,.591.211,14.044,14.044,0,0,1,5.205,10.917A.943.943,0,0,1,261.223,26.37Zm-13.111-9.383H248.1a7.477,7.477,0,1,1,.014,0ZM248.1,3.861a5.627,5.627,0,1,0,5.627,5.627A5.626,5.626,0,0,0,248.1,3.861Z" transform="translate(-234.029 0)"/>
    <path id="路径_139" data-name="路径 139" class="cls-1" d="M.943,223.055A.943.943,0,0,1,0,222.112,13.956,13.956,0,0,1,5.205,211.2a.94.94,0,0,1,1.182,1.463,12.182,12.182,0,0,0-4.516,9.468A.937.937,0,0,1,.943,223.055Zm21.4-10.2a.941.941,0,0,1-.535-1.716,3.754,3.754,0,0,0,.985-5.219c-.028-.042-.056-.084-.1-.141a.939.939,0,0,1,.183-1.308.872.872,0,0,1,.563-.183.913.913,0,0,1,.746.38,5.618,5.618,0,0,1-1.125,7.878c-.07.042-.127.1-.2.141A.884.884,0,0,1,22.34,212.855Z" transform="translate(0 -196.685)"/>
    <path id="路径_140" data-name="路径 140" class="cls-1" d="M103.308,225.122V223.5a10.312,10.312,0,1,1,20.624-.127v1.744a2.948,2.948,0,0,1-2.94,2.94H106.248A2.93,2.93,0,0,1,103.308,225.122Zm10.312-10.185a8.448,8.448,0,0,0-8.441,8.441v1.154a1.663,1.663,0,0,0,1.66,1.66H120.4a1.663,1.663,0,0,0,1.66-1.66v-1.154A8.466,8.466,0,0,0,113.62,214.936Zm-8.286-.816a.926.926,0,0,1-.535-.169,5.619,5.619,0,0,1-1.449-7.808,2.4,2.4,0,0,1,.141-.2.94.94,0,0,1,1.322-.155.931.931,0,0,1,.183,1.28,3.737,3.737,0,0,0,.746,5.247,1.218,1.218,0,0,0,.141.1.944.944,0,0,1,.239,1.308A.986.986,0,0,1,105.334,214.12Z" transform="translate(-99.552 -197.95)"/>
  </g>
</svg>
